<svg width="19" height="19" viewBox="0 0 19 19" fill="none" xmlns="http://www.w3.org/2000/svg">
<g clip-path="url(#clip0)">
<path d="M7.81677 8.93063C8.21105 8.7323 8.50914 8.51141 8.7134 8.2727C9.07681 7.84279 9.25614 7.27275 9.25614 6.56612C9.25614 5.87851 9.07681 5.29065 8.71815 4.79779C8.11961 3.99498 7.10658 3.58407 5.67434 3.56269H0V15.1453H5.29075C5.88692 15.1453 6.43915 15.0943 6.94982 14.9898C7.46049 14.8841 7.90227 14.6905 8.27637 14.4078C8.6089 14.162 8.88679 13.8568 9.10769 13.4969C9.45684 12.953 9.63142 12.3367 9.63142 11.6502C9.63142 10.9852 9.47822 10.4187 9.17419 9.95315C8.8666 9.48761 8.41532 9.14677 7.81677 8.93063ZM2.34075 5.57448H4.89647C5.4582 5.57448 5.92136 5.63505 6.28477 5.755C6.70518 5.92957 6.91538 6.28466 6.91538 6.82621C6.91538 7.31194 6.75506 7.65159 6.43797 7.84279C6.1185 8.034 5.70403 8.13019 5.19574 8.13019H2.34075V5.57448ZM6.38215 12.9316C6.0995 13.0682 5.70166 13.1359 5.19218 13.1359H2.34075V10.047H5.23137C5.73491 10.0505 6.12682 10.117 6.40709 10.2417C6.90588 10.4674 7.15409 10.8807 7.15409 11.4852C7.15409 12.1977 6.89757 12.6775 6.38215 12.9316Z" fill="#EBEBEB"/>
<path d="M17.1744 4.10287H12.1426V5.54461H17.1744V4.10287Z" fill="#EBEBEB"/>
<path d="M18.922 9.79299C18.8175 9.122 18.5871 8.53176 18.2284 8.02228C17.8353 7.44511 17.3365 7.02232 16.7297 6.75511C16.1252 6.48672 15.4447 6.35252 14.687 6.35371C13.4151 6.35371 12.3819 6.75155 11.5826 7.5413C10.7858 8.33343 10.3867 9.47234 10.3867 10.9568C10.3867 12.5399 10.8273 13.6836 11.7133 14.3854C12.5956 15.0885 13.6146 15.4388 14.7713 15.4388C16.1715 15.4388 17.2605 15.022 18.0384 14.1907C18.536 13.6657 18.8175 13.1491 18.8792 12.642H16.561C16.4268 12.8926 16.2713 13.0886 16.0931 13.2311C15.7701 13.4924 15.3497 13.623 14.8343 13.623C14.3438 13.623 13.9281 13.5149 13.5814 13.3C13.0089 12.9556 12.7097 12.3523 12.6717 11.4936H18.998C19.0075 10.7538 18.9837 10.1849 18.922 9.79299ZM12.7287 10.0151C12.8118 9.45809 13.0137 9.0163 13.3343 8.68971C13.655 8.36431 14.1086 8.20042 14.6894 8.19923C15.225 8.19923 15.6727 8.35243 16.0373 8.66002C16.3971 8.96998 16.6002 9.42008 16.6418 10.0151H12.7287Z" fill="#EBEBEB"/>
</g>
<defs>
<clipPath id="clip0">
<rect width="19" height="19" fill="white"/>
</clipPath>
</defs>
</svg>
