<svg width="19" height="19" viewBox="0 0 19 19" fill="none" xmlns="http://www.w3.org/2000/svg">
<g clip-path="url(#clip0)">
<path d="M18.9812 5.58605C18.9367 4.57651 18.7735 3.88246 18.5396 3.28105C18.2983 2.64267 17.9272 2.07114 17.4409 1.59601C16.9658 1.1135 16.3905 0.738563 15.7595 0.501074C15.1546 0.267211 14.4642 0.103956 13.4546 0.0594446C12.4375 0.011164 12.1147 0 9.53506 0C6.95545 0 6.63257 0.011164 5.61925 0.0556749C4.60971 0.100186 3.91566 0.263586 3.3144 0.497305C2.67588 0.738563 2.10434 1.10973 1.62922 1.59601C1.1467 2.07114 0.771911 2.64644 0.534277 3.27743C0.300414 3.88246 0.137159 4.57274 0.0926477 5.58228C0.0443671 6.59936 0.0332031 6.92225 0.0332031 9.50186C0.0332031 12.0815 0.0443671 12.4043 0.0888781 13.4177C0.133389 14.4272 0.296789 15.1213 0.530653 15.7227C0.771911 16.361 1.1467 16.9326 1.62922 17.4077C2.10434 17.8902 2.67965 18.2651 3.31063 18.5026C3.91566 18.7365 4.60594 18.8998 5.61563 18.9443C6.6288 18.9889 6.95183 18.9999 9.53143 18.9999C12.111 18.9999 12.4339 18.9889 13.4472 18.9443C14.4568 18.8998 15.1508 18.7365 15.7521 18.5026C17.029 18.009 18.0385 16.9994 18.5322 15.7227C18.7659 15.1176 18.9293 14.4272 18.9738 13.4177C19.0184 12.4043 19.0295 12.0815 19.0295 9.50186C19.0295 6.92225 19.0257 6.59936 18.9812 5.58605ZM17.2702 13.3434C17.2294 14.2713 17.0735 14.7724 16.9436 15.1065C16.6243 15.9342 15.9674 16.5911 15.1397 16.9104C14.8056 17.0403 14.3009 17.1962 13.3766 17.2369C12.3745 17.2816 12.0739 17.2926 9.53883 17.2926C7.00373 17.2926 6.69941 17.2816 5.70088 17.2369C4.77297 17.1962 4.27189 17.0403 3.93784 16.9104C3.52593 16.7582 3.151 16.5169 2.84667 16.2014C2.53118 15.8933 2.28992 15.5221 2.13769 15.1102C2.00778 14.7762 1.85192 14.2713 1.81118 13.3472C1.76652 12.345 1.7555 12.0443 1.7555 9.50925C1.7555 6.97416 1.76652 6.66983 1.81118 5.67145C1.85192 4.74353 2.00778 4.24246 2.13769 3.90841C2.28992 3.49636 2.53118 3.12157 2.85044 2.81709C3.15839 2.5016 3.52956 2.26034 3.94161 2.10825C4.27566 1.97835 4.78051 1.82248 5.70465 1.7816C6.7068 1.73709 7.0075 1.72592 9.54245 1.72592C12.0813 1.72592 12.3819 1.73709 13.3804 1.7816C14.3083 1.82248 14.8094 1.97835 15.1434 2.10825C15.5553 2.26034 15.9303 2.5016 16.2346 2.81709C16.5501 3.12519 16.7914 3.49636 16.9436 3.90841C17.0735 4.24246 17.2294 4.74716 17.2702 5.67145C17.3148 6.6736 17.3259 6.97416 17.3259 9.50925C17.3259 12.0443 17.3148 12.3413 17.2702 13.3434Z" fill="#EBEBEB"/>
<path d="M9.53513 4.62083C6.84055 4.62083 4.6543 6.80695 4.6543 9.50167C4.6543 12.1964 6.84055 14.3825 9.53513 14.3825C12.2299 14.3825 14.416 12.1964 14.416 9.50167C14.416 6.80695 12.2299 4.62083 9.53513 4.62083ZM9.53513 12.6677C7.78703 12.6677 6.36906 11.2499 6.36906 9.50167C6.36906 7.75342 7.78703 6.33559 9.53513 6.33559C11.2834 6.33559 12.7012 7.75342 12.7012 9.50167C12.7012 11.2499 11.2834 12.6677 9.53513 12.6677Z" fill="#EBEBEB"/>
<path d="M15.7478 4.42791C15.7478 5.05716 15.2376 5.56736 14.6082 5.56736C13.979 5.56736 13.4688 5.05716 13.4688 4.42791C13.4688 3.79852 13.979 3.28846 14.6082 3.28846C15.2376 3.28846 15.7478 3.79852 15.7478 4.42791Z" fill="#EBEBEB"/>
</g>
<defs>
<clipPath id="clip0">
<rect width="19" height="19" fill="white"/>
</clipPath>
</defs>
</svg>
